<svg xmlns="http://www.w3.org/2000/svg" viewBox="0 0 400 300" role="img" aria-label="PU spring coil hose placeholder illustration">
  <defs>
    <linearGradient id="bgB" x1="0" y1="0" x2="1" y2="1">
      <stop offset="0" stop-color="#1a1c20"/>
      <stop offset="1" stop-color="#0c0d0f"/>
    </linearGradient>
  </defs>
  <rect width="400" height="300" fill="url(#bgB)"/>
  <g fill="none" stroke="#e2372f" stroke-width="6">
    <path d="M80 90 q20 -30 40 0 q20 30 40 0 q20 -30 40 0 q20 30 40 0 q20 -30 40 0 q20 30 40 0"/>
    <path d="M80 130 q20 -30 40 0 q20 30 40 0 q20 -30 40 0 q20 30 40 0 q20 -30 40 0 q20 30 40 0" opacity="0.75"/>
    <path d="M80 170 q20 -30 40 0 q20 30 40 0 q20 -30 40 0 q20 30 40 0 q20 -30 40 0 q20 30 40 0" opacity="0.5"/>
  </g>
  <circle cx="70" cy="130" r="14" fill="#3a3d42" stroke="#6a6e75" stroke-width="3"/>
  <circle cx="330" cy="130" r="14" fill="#3a3d42" stroke="#6a6e75" stroke-width="3"/>
  <text x="200" y="270" text-anchor="middle" font-family="Arial, sans-serif" font-size="15" fill="#7a7d83" letter-spacing="1">PU SPRING / COIL HOSE — PHOTO PLACEHOLDER</text>
</svg>
